<?xml version="1.0" encoding="iso-8859-1"?>

<!DOCTYPE svg PUBLIC "-//W3C//DTD SVG 1.1//EN" "http://www.w3.org/Graphics/SVG/1.1/DTD/svg11.dtd">
<!-- Uploaded to: SVG Repo, www.svgrepo.com, Generator: SVG Repo Mixer Tools -->
<svg version="1.1" id="_x36_" xmlns="http://www.w3.org/2000/svg" xmlns:xlink="http://www.w3.org/1999/xlink" 
	 viewBox="0 0 512 512"  xml:space="preserve">
<g>
	<defs>
		<filter id="Adobe_OpacityMaskFilter" filterUnits="userSpaceOnUse" x="0" y="0" width="449.074" height="512">
			<feFlood  style="flood-color:white;flood-opacity:1" result="back"/>
			<feBlend  in="SourceGraphic" in2="back" mode="normal"/>
		</filter>
	</defs>
	<mask maskUnits="userSpaceOnUse" x="0" y="0" width="449.074" height="512" id="SVGID_1_">
		<g style="filter:url(#Adobe_OpacityMaskFilter);">
			<defs>
				<filter id="Adobe_OpacityMaskFilter_1_" filterUnits="userSpaceOnUse" x="0" y="0" width="449.074" height="512">
					<feFlood  style="flood-color:white;flood-opacity:1" result="back"/>
					<feBlend  in="SourceGraphic" in2="back" mode="normal"/>
				</filter>
			</defs>
			<mask maskUnits="userSpaceOnUse" x="0" y="0" width="449.074" height="512" id="SVGID_1_">
				<g style="filter:url(#Adobe_OpacityMaskFilter_1_);">
				</g>
			</mask>
			<linearGradient id="SVGID_2_" gradientUnits="userSpaceOnUse" x1="0" y1="256" x2="449.0743" y2="256">
				<stop  offset="0.1014" style="stop-color:#F6F6F6"/>
				<stop  offset="1" style="stop-color:#FFFFFF"/>
			</linearGradient>
			<path style="mask:url(#SVGID_1_);fill:url(#SVGID_2_);" d="M449.074,45.881v371.248l-46.923,45.209l-51.108,49.158L350.521,512
				H47.619c-12.385,0-23.547-4.538-32.008-12.017c-1.134-0.924-2.18-1.932-3.139-3.025C4.709,488.808,0,477.967,0,466.035V45.881
				c0-2.941,0.261-5.798,0.872-8.655C5.059,16.05,24.421,0,47.619,0h353.835c18.403,0,34.45,10.167,42.3,24.957
				c1.744,3.277,3.139,6.723,4.011,10.42C448.638,38.738,449.074,42.268,449.074,45.881z"/>
		</g>
	</mask>
	<linearGradient id="SVGID_3_" gradientUnits="userSpaceOnUse" x1="0" y1="256" x2="449.0743" y2="256">
		<stop  offset="0.1014" style="stop-color:#FCFAD7"/>
		<stop  offset="1" style="stop-color:#FDFDED"/>
	</linearGradient>
	<path style="fill:url(#SVGID_3_);" d="M449.074,45.881v371.248l-46.923,45.209l-51.108,49.158L350.521,512H47.619
		c-12.385,0-23.547-4.538-32.008-12.017c-1.134-0.924-2.18-1.932-3.139-3.025C4.709,488.808,0,477.967,0,466.035V45.881
		c0-2.941,0.261-5.798,0.872-8.655C5.059,16.05,24.421,0,47.619,0h353.835c18.403,0,34.45,10.167,42.3,24.957
		c1.744,3.277,3.139,6.723,4.011,10.42C448.638,38.738,449.074,42.268,449.074,45.881z"/>
	<polygon style="opacity:0.2;fill:#8D8275;" points="350.521,434.961 193.794,511.975 349.823,511.975 350.521,511.771 
		351.043,511.566 	"/>
	<g>
		<g>
			<g>
				<rect x="3.074" y="217.364" style="fill:#FFFFFF;" width="442.879" height="5.71"/>
			</g>
			<g>
				<rect x="3.074" y="215.937" style="fill:#AEA983;" width="442.879" height="5.71"/>
			</g>
		</g>
		<g>
			<g>
				<rect x="3.074" y="157.561" style="fill:#FFFFFF;" width="442.879" height="5.71"/>
			</g>
			<g>
				<rect x="3.074" y="156.134" style="fill:#AEA983;" width="442.879" height="5.71"/>
			</g>
		</g>
		<g>
			<g>
				<rect x="3.074" y="277.169" style="fill:#FFFFFF;" width="442.879" height="5.709"/>
			</g>
			<g>
				<rect x="3.074" y="275.74" style="fill:#AEA983;" width="442.879" height="5.71"/>
			</g>
		</g>
		<g>
			<g>
				<rect x="3.074" y="336.971" style="fill:#FFFFFF;" width="442.879" height="5.709"/>
			</g>
			<g>
				<rect x="3.074" y="335.543" style="fill:#AEA983;" width="442.879" height="5.71"/>
			</g>
		</g>
		<g>
			<g>
				<rect x="3.074" y="396.775" style="fill:#FFFFFF;" width="442.879" height="5.71"/>
			</g>
			<g>
				<rect x="3.074" y="395.348" style="fill:#AEA983;" width="442.879" height="5.709"/>
			</g>
		</g>
		<g>
			<g>
				<polygon style="fill:#FFFFFF;" points="408.081,456.599 402.152,462.313 3.052,462.313 3.052,456.599 				"/>
			</g>
			<g>
				<polygon style="fill:#AEA983;" points="409.564,455.17 403.634,460.884 3.052,460.884 3.052,455.17 				"/>
			</g>
		</g>
	</g>
	<g>
		<rect x="59.971" y="104.619" style="fill:#FFFFFF;" width="14.652" height="407.381"/>
		<rect x="58.052" y="104.619" style="fill:#CBB12C;" width="13.867" height="407.381"/>
	</g>
	<linearGradient id="SVGID_4_" gradientUnits="userSpaceOnUse" x1="350.5206" y1="464.54" x2="449.0743" y2="464.54">
		<stop  offset="0.1063" style="stop-color:#FAF7C2"/>
		<stop  offset="1" style="stop-color:#FAF9D0"/>
	</linearGradient>
	<polygon style="fill:url(#SVGID_4_);" points="449.074,417.104 402.152,462.313 350.521,511.976 350.521,417.104 	"/>
	<defs>
		<filter id="Adobe_OpacityMaskFilter_2_" filterUnits="userSpaceOnUse" x="0" y="0" width="449.074" height="104.619">
			<feFlood  style="flood-color:white;flood-opacity:1" result="back"/>
			<feBlend  in="SourceGraphic" in2="back" mode="normal"/>
		</filter>
	</defs>
	<mask maskUnits="userSpaceOnUse" x="0" y="0" width="449.074" height="104.619" id="SVGID_5_">
		<g style="filter:url(#Adobe_OpacityMaskFilter_2_);">
			<defs>
				<filter id="Adobe_OpacityMaskFilter_3_" filterUnits="userSpaceOnUse" x="0" y="0" width="449.074" height="104.619">
					<feFlood  style="flood-color:white;flood-opacity:1" result="back"/>
					<feBlend  in="SourceGraphic" in2="back" mode="normal"/>
				</filter>
			</defs>
			<mask maskUnits="userSpaceOnUse" x="0" y="0" width="449.074" height="104.619" id="SVGID_5_">
				<g style="filter:url(#Adobe_OpacityMaskFilter_3_);">
				</g>
			</mask>
			<linearGradient id="SVGID_6_" gradientUnits="userSpaceOnUse" x1="0" y1="52.3093" x2="449.0743" y2="52.3093">
				<stop  offset="0.0338" style="stop-color:#F6F6F6"/>
				<stop  offset="0.6473" style="stop-color:#F6F6F6"/>
				<stop  offset="0.9807" style="stop-color:#F6F6F6"/>
			</linearGradient>
			<path style="mask:url(#SVGID_5_);fill:url(#SVGID_6_);" d="M449.074,35.377v69.242H0V37.225C4.207,16.05,23.664,0,46.975,0
				h355.561C425.148,0,444.166,15.125,449.074,35.377z"/>
		</g>
	</mask>
	<linearGradient id="SVGID_7_" gradientUnits="userSpaceOnUse" x1="0" y1="52.3093" x2="449.0743" y2="52.3093">
		<stop  offset="0.0338" style="stop-color:#745833"/>
		<stop  offset="0.6473" style="stop-color:#796B56"/>
		<stop  offset="0.9807" style="stop-color:#765D3C"/>
	</linearGradient>
	<path style="fill:url(#SVGID_7_);" d="M449.074,35.377v69.242H0V37.225C4.207,16.05,23.664,0,46.975,0h355.561
		C425.148,0,444.166,15.125,449.074,35.377z"/>
	<path style="fill:#9A8772;" d="M447.732,35.906v4.957c-4.884-20.251-23.81-35.376-46.312-35.376H47.586
		c-23.2,0-42.562,16.049-46.748,37.225v-4.959C5.025,16.579,24.387,0.529,47.586,0.529H401.42
		C423.922,0.529,442.848,15.654,447.732,35.906z"/>
</g>
</svg>